<?xml version="1.0" encoding="UTF-8" standalone="no"?>
<svg
   version="1.0"
   width="2125.2988pt"
   height="512.56049pt"
   viewBox="0 0 2125.2988 512.56049"
   preserveAspectRatio="xMidYMid"
   id="svg1"
   sodipodi:docname="logo_v3.svg"
   inkscape:version="1.4.2 (f4327f4, 2025-05-13)"
   xmlns:inkscape="http://www.inkscape.org/namespaces/inkscape"
   xmlns:sodipodi="http://sodipodi.sourceforge.net/DTD/sodipodi-0.dtd"
   xmlns="http://www.w3.org/2000/svg"
   xmlns:svg="http://www.w3.org/2000/svg">
  <sodipodi:namedview
     id="namedview1"
     pagecolor="#ffffff"
     bordercolor="#000000"
     borderopacity="0.25"
     inkscape:showpageshadow="2"
     inkscape:pageopacity="0.0"
     inkscape:pagecheckerboard="0"
     inkscape:deskcolor="#d1d1d1"
     inkscape:document-units="pt"
     inkscape:zoom="0.12927246"
     inkscape:cx="1976.4457"
     inkscape:cy="1837.2049"
     inkscape:window-width="1920"
     inkscape:window-height="1009"
     inkscape:window-x="1072"
     inkscape:window-y="828"
     inkscape:window-maximized="1"
     inkscape:current-layer="svg1" />
  <defs
     id="defs1">
    <rect
       x="89.724579"
       y="358.89832"
       width="1842.3446"
       height="284.12784"
       id="rect5" />
    <rect
       x="56.825565"
       y="343.94421"
       width="1899.1702"
       height="236.27472"
       id="rect4" />
    <rect
       x="98.697037"
       y="331.98093"
       width="1851.3171"
       height="454.60452"
       id="rect3" />
    <rect
       x="-293.10028"
       y="1004.9153"
       width="1920.106"
       height="544.3291"
       id="rect2" />
    <rect
       x="38.88065"
       y="334.97177"
       width="1384.7493"
       height="185.43079"
       id="rect1" />
    <rect
       x="89.724579"
       y="358.89832"
       width="1842.3446"
       height="284.12784"
       id="rect6" />
  </defs>
  <metadata
     id="metadata1">
Created by potrace 1.15, written by Peter Selinger 2001-2017
</metadata>
  <g
     id="g2"
     transform="translate(0,102.56051)">
    <g
       transform="matrix(0.16603897,0,0,-0.12501476,0,553.76698)"
       fill="#000000"
       stroke="none"
       id="g1">
      <path
         d="m 0,5140 v -110 h 40 c 30,0 47,-7 65,-25 24,-23 25,-30 25,-148 0,-149 -8,-166 -83,-174 L 0,4677 V 3200 1723 l 47,-6 c 75,-8 83,-25 83,-174 0,-118 -1,-125 -25,-148 -18,-18 -35,-25 -65,-25 H 0 v -110 -110 h 6400 6400 v 108 108 l -30,11 c -41,15 -50,46 -50,168 0,122 9,153 50,168 l 30,11 v 1476 1476 l -30,11 c -41,15 -50,46 -50,168 0,122 9,153 50,168 l 30,11 v 108 108 H 6400 0 Z m 665,-135 c 24,-23 25,-30 25,-148 0,-160 -6,-169 -109,-175 -144,-8 -151,0 -151,171 0,73 4,137 8,143 16,24 51,33 125,34 70,0 81,-3 102,-25 z m 562,2 c 16,-15 18,-36 18,-152 0,-166 -1,-168 -110,-173 -92,-5 -130,8 -144,50 -14,40 -14,206 0,245 14,43 42,53 136,50 64,-1 86,-6 100,-20 z m 531,17 c 39,-11 52,-53 52,-168 0,-115 -9,-148 -47,-165 -26,-12 -133,-15 -171,-5 -39,11 -52,53 -52,168 0,117 9,152 42,166 26,10 142,13 176,4 z m 566,-5 c 35,-16 46,-57 46,-164 0,-157 -20,-180 -155,-173 -109,5 -110,7 -110,174 0,131 1,136 24,155 18,15 39,19 97,19 40,0 84,-5 98,-11 z m 559,0 c 12,-7 25,-17 29,-23 4,-6 8,-70 8,-143 0,-171 -7,-179 -151,-171 -103,6 -109,15 -109,175 0,118 1,125 25,148 21,22 33,25 100,25 42,0 86,-5 98,-11 z m 571,-10 c 26,-20 26,-22 26,-154 v -134 l -27,-21 c -25,-19 -38,-21 -111,-18 -118,4 -122,11 -122,175 0,118 1,125 25,148 21,22 33,25 103,25 65,0 84,-4 106,-21 z m 560,0 c 26,-20 26,-22 26,-153 0,-169 -2,-171 -130,-171 -128,0 -130,2 -130,171 0,131 0,133 26,153 22,17 41,21 104,21 63,0 82,-4 104,-21 z m 560,0 c 26,-20 26,-22 26,-149 0,-171 -3,-175 -128,-175 -131,0 -132,2 -132,171 0,131 0,133 26,153 22,17 41,21 104,21 63,0 82,-4 104,-21 z m 561,-4 c 24,-23 25,-30 25,-148 0,-164 -4,-171 -122,-175 -73,-3 -86,-1 -110,18 l -28,21 v 134 c 0,132 0,134 26,154 22,17 41,21 106,21 70,0 82,-3 103,-25 z m 560,0 c 24,-23 25,-30 25,-148 0,-164 -4,-171 -122,-175 -73,-3 -86,-1 -110,18 l -28,21 v 132 c 0,73 4,137 8,143 16,24 51,33 125,34 70,0 81,-3 102,-25 z m 556,6 c 23,-19 24,-24 24,-155 0,-167 -1,-169 -110,-174 -92,-5 -130,8 -144,50 -14,40 -14,206 0,245 14,41 40,52 130,52 61,1 82,-3 100,-18 z m 566,-4 c 15,-14 19,-39 21,-133 5,-174 -9,-194 -133,-194 -118,0 -135,23 -135,182 0,105 14,152 47,162 10,2 55,4 100,3 64,-2 86,-6 100,-20 z m 536,14 c 34,-13 47,-58 47,-166 0,-157 -20,-180 -155,-173 -106,5 -109,10 -113,156 -4,128 5,167 40,182 30,12 150,12 181,1 z m 560,-2 c 12,-7 25,-17 29,-23 4,-6 8,-70 8,-143 0,-171 -7,-179 -151,-171 -103,6 -109,15 -109,175 0,118 1,125 25,148 21,22 33,25 100,25 42,0 86,-5 98,-11 z m 571,-10 c 26,-20 26,-22 26,-152 0,-73 -4,-137 -8,-143 -15,-24 -54,-34 -127,-34 -67,0 -79,3 -100,25 -24,23 -25,30 -25,150 0,120 1,127 25,150 21,22 33,25 103,25 65,0 84,-4 106,-21 z m 560,0 c 26,-20 26,-22 26,-154 v -134 l -27,-21 c -25,-19 -38,-21 -111,-18 -118,4 -122,11 -122,175 0,118 1,125 25,148 21,22 33,25 103,25 65,0 84,-4 106,-21 z m 560,0 c 26,-20 26,-22 26,-153 0,-169 -2,-171 -130,-171 -128,0 -130,2 -130,171 0,131 0,133 26,153 22,17 41,21 104,21 63,0 82,-4 104,-21 z m 560,0 c 26,-20 26,-22 26,-149 0,-171 -3,-175 -128,-175 -131,0 -132,2 -132,171 0,131 0,133 26,153 22,17 41,21 104,21 63,0 82,-4 104,-21 z m 561,-4 c 24,-23 25,-30 25,-148 0,-164 -4,-171 -122,-175 -73,-3 -86,-1 -110,18 l -28,21 v 134 c 0,132 0,134 26,154 22,17 41,21 106,21 70,0 82,-3 103,-25 z m 560,0 c 24,-23 25,-30 25,-148 0,-160 -6,-169 -109,-175 -144,-8 -151,0 -151,171 0,73 4,137 8,143 16,24 51,33 125,34 70,0 81,-3 102,-25 z m 556,6 c 23,-19 24,-24 24,-155 0,-167 -1,-169 -110,-174 -92,-5 -130,8 -144,50 -14,40 -14,206 0,245 14,41 40,52 130,52 61,1 82,-3 100,-18 z m 537,13 c 39,-11 52,-53 52,-168 0,-115 -9,-148 -47,-165 -29,-13 -142,-15 -176,-2 -34,13 -47,58 -47,166 0,104 13,153 44,165 25,10 141,12 174,4 z M 671,1691 c 16,-20 19,-40 19,-148 0,-118 -1,-125 -25,-148 -21,-22 -33,-25 -100,-25 -73,0 -112,10 -127,34 -4,6 -8,70 -8,141 0,72 4,135 8,141 18,26 50,34 130,32 74,-3 86,-6 103,-27 z m 556,6 c 16,-15 18,-36 18,-152 0,-166 -1,-168 -110,-173 -92,-5 -130,8 -144,50 -14,40 -14,206 0,245 14,43 42,53 136,50 64,-1 86,-6 100,-20 z m 536,12 c 38,-17 47,-50 47,-165 0,-163 -18,-182 -165,-172 -94,6 -99,13 -103,154 -4,125 6,170 42,184 31,13 151,12 179,-1 z m 561,0 c 35,-16 46,-57 46,-164 0,-155 -17,-175 -144,-175 -114,0 -120,8 -124,157 -4,129 5,168 40,183 33,13 153,12 182,-1 z m 559,0 c 12,-7 25,-17 29,-23 4,-6 8,-69 8,-141 0,-71 -4,-135 -8,-141 -15,-24 -54,-34 -127,-34 -67,0 -79,3 -100,25 -24,23 -25,30 -25,145 0,127 7,155 43,170 32,13 155,12 180,-1 z m 571,-10 c 26,-20 26,-22 26,-154 0,-132 0,-134 -26,-154 -22,-17 -41,-21 -106,-21 -70,0 -82,3 -103,25 -24,23 -25,30 -25,145 0,67 5,130 11,141 15,29 44,38 125,38 58,1 76,-3 98,-20 z m 565,-3 c 19,-18 21,-30 21,-152 0,-131 0,-133 -26,-153 -22,-17 -41,-21 -104,-21 -63,0 -82,4 -104,21 -26,20 -26,22 -26,153 0,114 2,135 18,148 27,25 43,28 123,25 59,-2 82,-6 98,-21 z m 562,-5 c 16,-20 19,-40 19,-151 0,-127 0,-129 -26,-149 -22,-17 -41,-21 -104,-21 -63,0 -82,4 -104,21 -26,20 -26,22 -26,153 0,114 2,135 18,148 28,25 43,28 125,25 69,-2 81,-5 98,-26 z m 560,0 c 16,-20 19,-40 19,-148 0,-118 -1,-125 -25,-148 -21,-22 -33,-25 -103,-25 -65,0 -84,4 -106,21 -26,20 -26,22 -26,154 v 134 l 28,21 c 24,19 37,21 110,18 74,-3 86,-6 103,-27 z m 560,0 c 16,-20 19,-40 19,-148 0,-118 -1,-125 -25,-148 -21,-22 -33,-25 -100,-25 -73,0 -112,10 -127,34 -4,6 -8,70 -8,143 v 132 l 28,21 c 24,19 37,21 110,18 74,-3 86,-6 103,-27 z m 556,6 c 16,-15 18,-36 18,-153 0,-131 -1,-136 -24,-155 -18,-15 -39,-19 -97,-19 -127,0 -144,20 -144,175 0,104 11,147 43,164 12,6 59,10 104,8 64,-1 86,-6 100,-20 z m 536,14 c 39,-15 49,-57 45,-185 -4,-141 -9,-148 -103,-154 -146,-9 -165,10 -165,166 0,111 11,155 43,170 27,13 147,15 180,3 z m 561,-2 c 14,-7 30,-25 36,-42 15,-45 13,-211 -4,-252 -17,-40 -50,-50 -151,-43 -95,6 -99,13 -103,156 -4,128 5,167 40,182 33,13 153,12 182,-1 z m 559,0 c 12,-7 25,-17 29,-23 4,-6 8,-69 8,-141 0,-71 -4,-135 -8,-141 -15,-24 -54,-34 -127,-34 -67,0 -79,3 -100,25 -24,23 -25,30 -25,145 0,127 7,155 43,170 32,13 155,12 180,-1 z m 560,0 c 12,-7 25,-17 29,-23 4,-6 8,-70 8,-143 0,-130 0,-132 -26,-152 -22,-17 -41,-21 -106,-21 -70,0 -82,3 -103,25 -24,23 -25,30 -25,150 0,120 1,127 25,150 21,22 33,25 100,25 42,0 86,-5 98,-11 z m 571,-10 c 26,-20 26,-22 26,-154 0,-132 0,-134 -26,-154 -22,-17 -41,-21 -106,-21 -70,0 -82,3 -103,25 -24,23 -25,30 -25,145 0,67 5,130 11,141 15,29 44,38 125,38 58,1 76,-3 98,-20 z m 565,-3 c 19,-18 21,-30 21,-152 0,-131 0,-133 -26,-153 -22,-17 -41,-21 -104,-21 -63,0 -82,4 -104,21 -26,20 -26,22 -26,153 0,114 2,135 18,148 27,25 43,28 123,25 59,-2 82,-6 98,-21 z m 562,-5 c 16,-20 19,-40 19,-151 0,-127 0,-129 -26,-149 -22,-17 -41,-21 -104,-21 -63,0 -82,4 -104,21 -26,20 -26,22 -26,153 0,114 2,135 18,148 28,25 43,28 125,25 69,-2 81,-5 98,-26 z m 560,0 c 16,-20 19,-40 19,-148 0,-119 -1,-125 -25,-149 -25,-25 -30,-26 -130,-22 -140,4 -139,3 -143,156 -4,128 5,167 40,182 13,5 67,9 121,7 90,-2 100,-4 118,-26 z m 560,0 c 16,-20 19,-40 19,-148 0,-118 -1,-125 -25,-148 -22,-23 -31,-25 -125,-25 -94,0 -103,2 -125,25 -24,23 -25,30 -25,145 0,67 5,130 11,141 16,32 47,39 152,36 90,-2 100,-4 118,-26 z m 556,6 c 16,-15 18,-36 18,-153 0,-131 -1,-136 -24,-155 -18,-15 -39,-19 -97,-19 -127,0 -144,20 -144,175 0,104 11,147 43,164 12,6 59,10 104,8 64,-1 86,-6 100,-20 z m 536,12 c 38,-17 47,-50 47,-165 0,-157 -13,-174 -137,-174 -117,0 -133,21 -133,175 0,104 13,153 44,165 31,13 151,12 179,-1 z"
         id="path1" />
    </g>
    <path
       id="text4"
       style="font-size:192px;line-height:1;font-family:Boldonse;-inkscape-font-specification:Boldonse;letter-spacing:0px;white-space:pre;fill:#ffffff;stroke-width:1.19225"
       d="m 289.54429,8.7867624 c -7.19147,1.25e-5 -14.23561,0.6361251 -21.13351,1.9055996 -6.89776,1.269975 -13.5741,3.013331 -20.03167,5.234944 -11.15409,4.125799 -22.30983,10.55344 -33.46384,19.28112 -11.154,8.569 -20.91282,19.280127 -29.27831,32.133608 -7.48496,11.742699 -13.42977,24.833832 -17.83259,39.274166 -4.25623,14.28166 -6.38471,29.67415 -6.38461,46.17736 -3e-5,8.09296 0.51561,15.94759 1.54294,23.56449 1.17466,7.61672 2.78696,14.9975 4.84167,22.13832 3.96258,13.96429 9.83469,27.13401 17.61313,39.51144 7.77843,12.21875 17.02386,22.61302 27.73758,31.18202 12.18135,9.83844 24.72962,16.89981 37.6448,21.18431 13.06187,4.28453 25.97595,6.42625 38.74441,6.42624 12.76833,10e-6 25.02361,-1.90351 36.76469,-5.71195 23.33537,-7.61686 42.5621,-21.26306 57.67879,-40.94003 7.19136,-9.36241 13.0613,-19.67814 17.61087,-30.94472 3.91797,-9.39902 6.61099,-19.6819 8.07765,-30.84787 l 24.84201,1.16464 -25.53175,-21.61045 -25.53175,-21.60807 -27.1643,19.14071 -27.16429,19.1407 27.50917,1.28817 c -0.5148,2.17399 -1.08374,4.32014 -1.70642,6.43592 -1.02736,3.33237 -2.20177,6.50565 -3.52271,9.5207 -5.7237,12.53609 -13.94238,22.37532 -24.65609,29.51616 -10.86059,7.14082 -23.40887,10.70959 -37.6448,10.70956 -8.65907,0 -16.95272,-1.42699 -24.87784,-4.28333 -7.6318,-2.53892 -14.67589,-6.50563 -21.13353,-11.90089 -6.31082,-5.39529 -11.5945,-11.66331 -15.85068,-18.80413 -4.84311,-8.09296 -8.4376,-16.66278 -10.78732,-25.70739 -2.20141,-9.04507 -3.30091,-18.40776 -3.30091,-28.08757 -5e-5,-5.23655 0.29295,-10.31579 0.88009,-15.23505 0.58706,-5.07793 1.54113,-9.91649 2.86198,-14.51836 4.84315,-18.24874 13.65008,-32.847904 26.41858,-43.79721 5.57696,-4.60183 12.25317,-8.411293 20.03167,-11.426299 7.77838,-3.173675 16.36509,-4.760362 25.75796,-4.760362 6.89789,0 13.64898,0.874366 20.25337,2.619897 6.31082,1.90425 12.108,4.67964 17.39143,8.329383 5.28349,3.491075 9.97882,7.617375 14.08828,12.377937 3.96247,4.760562 7.41319,10.394853 10.34837,16.900944 3.08204,6.34739 5.20823,13.08949 6.3824,20.23029 h 52.83488 C 409.22997,110.66217 406.44281,98.285751 402.03982,86.860476 397.63695,75.752514 391.69218,65.358224 384.20723,55.678444 376.72232,45.839982 368.063,37.430214 358.22985,30.448077 337.68297,16.007753 314.78757,8.7867624 289.54429,8.7867624 Z m 1129.93371,0 c -7.1915,1.25e-5 -14.2357,0.6361251 -21.1335,1.9055996 -6.8978,1.269975 -13.5742,3.013331 -20.0318,5.234944 -11.154,4.125799 -22.3098,10.55344 -33.4638,19.28112 -11.1539,8.569 -20.9127,19.280127 -29.2782,32.133608 -7.485,11.742699 -13.4298,24.833832 -17.8326,39.274166 -4.2562,14.28166 -6.3847,29.67415 -6.3846,46.17736 -10e-5,8.09296 0.5156,15.94759 1.5429,23.56449 1.1747,7.61672 2.787,14.9975 4.8417,22.13832 3.9625,13.96429 9.8347,27.13401 17.6131,39.51144 7.7784,12.21875 17.0238,22.61302 27.7375,31.18202 12.1815,9.83844 24.7296,16.89981 37.6449,21.18431 13.0618,4.28453 25.9759,6.42625 38.7444,6.42624 12.7683,10e-6 25.0236,-1.90351 36.7647,-5.71195 23.3353,-7.61686 42.5621,-21.26306 57.6788,-40.94003 7.1914,-9.36241 13.0613,-19.67814 17.6109,-30.94472 3.9179,-9.39902 6.6109,-19.6819 8.0776,-30.84787 l 24.8419,1.16464 -25.5318,-21.61045 -25.5316,-21.60807 -27.1643,19.14071 -27.1643,19.1407 27.5091,1.28817 c -0.5148,2.17399 -1.0837,4.32014 -1.7064,6.43592 -1.0273,3.33237 -2.2018,6.50565 -3.5226,9.5207 -5.7239,12.53609 -13.9425,22.37532 -24.6562,29.51616 -10.8606,7.14082 -23.4088,10.70959 -37.6448,10.70956 -8.659,0 -16.9527,-1.42699 -24.8778,-4.28333 -7.6317,-2.53892 -14.6758,-6.50563 -21.1335,-11.90089 -6.3108,-5.39529 -11.5945,-11.66331 -15.8507,-18.80413 -4.8431,-8.09296 -8.4376,-16.66278 -10.7873,-25.70739 -2.2014,-9.04507 -3.301,-18.40776 -3.301,-28.08757 0,-5.23655 0.293,-10.31579 0.8802,-15.23505 0.587,-5.07793 1.5411,-9.91649 2.8619,-14.51836 4.8433,-18.24874 13.6501,-32.847904 26.4186,-43.79721 5.5771,-4.60183 12.2532,-8.411293 20.0318,-11.426299 7.7783,-3.173675 16.365,-4.760362 25.7578,-4.760362 6.8979,0 13.6491,0.874366 20.2534,2.619897 6.3108,1.90425 12.108,4.67964 17.3914,8.329383 5.2836,3.491075 9.9789,7.617375 14.0883,12.377937 3.9625,4.760562 7.4132,10.394853 10.3484,16.900944 3.082,6.34739 5.2083,13.08949 6.3824,20.23029 h 52.8349 c -1.1741,-13.32954 -3.9612,-25.705959 -8.3643,-37.131234 -4.4029,-11.107962 -10.3477,-21.502252 -17.8326,-31.182032 -7.4848,-9.838462 -16.1443,-18.24823 -25.9774,-25.230367 C 1467.6167,16.007753 1444.7213,8.7867624 1419.478,8.7867624 Z M 88.50611,10.641519 c -8.659033,0 -16.362053,0.950512 -23.113168,2.85475 -13.648981,3.808449 -24.071043,11.267661 -31.262445,22.375623 -3.669085,5.712637 -6.383647,12.376112 -8.144804,19.992986 -1.614395,7.458206 -2.420827,15.551112 -2.420827,24.278793 0,3.332381 0.07268,6.586715 0.219463,9.760415 0.29353,3.173687 0.734212,6.18738 1.321266,9.043705 1.174105,5.871339 2.934601,11.665299 5.282813,17.377969 2.494982,5.55398 5.870573,11.3455 10.126708,17.37552 4.256135,6.18873 9.392223,12.61394 15.409516,19.27873 6.164059,6.50608 13.355925,13.72706 21.574677,21.66132 2.641737,2.53895 5.063253,4.91893 7.264714,7.14052 2.348207,2.2216 4.476694,4.28473 6.384598,6.18895 3.375556,3.64976 6.310477,6.98269 8.805462,9.99772 2.641727,3.015 4.697507,5.95008 6.165147,8.80642 1.32085,2.85632 2.2,5.55317 2.64027,8.09213 0.44031,2.38025 0.66065,5.23673 0.66065,8.56911 0,1.74553 -0.0726,3.49183 -0.21947,5.23734 -0.14695,1.58687 -0.29441,3.09491 -0.44117,4.52305 -0.58703,3.17373 -1.46616,5.87056 -2.64027,8.09216 -1.17411,2.06289 -2.42123,3.80918 -3.74208,5.23735 -1.46766,1.58684 -3.303084,2.77563 -5.504512,3.56905 -2.20146,0.63475 -4.475348,0.95401 -6.823571,0.95401 -6.751111,0 -11.741794,-2.53959 -14.970601,-7.61755 -3.522308,-5.07791 -5.282799,-12.21785 -5.282799,-21.4216 V 196.77722 H 21.363509 v 24.99306 c 0,10.31455 0.954068,19.43902 2.861991,27.37325 3.669084,16.34455 11.07905,28.64238 22.233064,36.89401 11.300778,8.41029 25.977561,12.61516 44.02942,12.61516 8.95259,0 17.318866,-1.11017 25.097306,-3.33178 7.04462,-1.90419 13.50279,-4.99889 19.37333,-9.28338 6.01728,-4.2845 10.86038,-9.43993 14.52943,-15.46997 3.96259,-6.3474 6.89749,-13.48978 8.80545,-21.42404 1.90793,-8.09292 2.86198,-16.90056 2.86198,-26.42166 0,-3.49107 -0.14777,-6.82159 -0.44117,-9.99527 -0.14662,-3.17372 -0.51251,-6.26842 -1.09954,-9.28343 -1.17411,-5.87136 -3.00955,-11.58427 -5.50452,-17.13826 -2.49499,-5.55397 -5.87059,-11.3455 -10.12669,-17.37553 -4.25617,-5.71266 -9.76025,-12.29996 -16.51136,-19.75813 -6.60437,-7.45821 -13.86892,-15.07465 -21.79414,-22.85021 -2.64175,-2.53895 -4.99057,-4.99752 -7.045249,-7.37782 -2.201428,-2.22158 -4.18229,-4.36333 -5.943448,-6.42624 -3.522318,-3.64974 -6.457223,-7.06128 -8.805446,-10.235 -2.348192,-3.332376 -4.1087,-6.188863 -5.28282,-8.569107 -1.467638,-2.697669 -2.421706,-5.237281 -2.861981,-7.617575 -0.293517,-2.380243 -0.441183,-4.603006 -0.441183,-6.665937 0,-6.823443 1.247117,-12.059924 3.742114,-15.709668 2.494963,-3.649731 5.94549,-5.474634 10.348395,-5.474634 9.539619,0 14.307728,7.697459 14.307728,23.08989 v 16.661267 h 48.43217 V 77.049193 c 0,-8.727681 -0.87913,-16.660968 -2.64029,-23.801774 -2.20144,-8.727693 -5.284,-15.629371 -9.2466,-20.707308 -3.96264,-5.077924 -7.70621,-8.808715 -11.22852,-11.189015 C 118.44597,14.21029 104.9436,10.641519 88.50611,10.641519 Z M 437.65794,13.0217 V 296.27252 H 547.73042 V 243.9062 h -58.3394 v -72.12204 h 52.83489 V 119.41781 H 489.39102 V 65.38559 h 57.23761 V 13.021712 Z m 129.88473,0 v 283.25082 h 51.7331 v -69.26486 c 0,-5.39531 -0.14528,-10.9486 -0.43892,-16.66125 -0.14661,-5.87134 -0.36713,-11.82252 -0.66065,-17.85253 -0.88055,-12.06007 -2.055,-24.35787 -3.52262,-36.89397 -1.46766,-12.69482 -2.93511,-25.23082 -4.40271,-37.60828 -1.76114,-12.85348 -3.52166,-24.994066 -5.28282,-36.419366 -1.76115,-11.583993 -3.37628,-22.533398 -4.84388,-32.847891 h 4.40269 c 0.73382,5.077924 1.54025,10.395352 2.42084,15.949346 0.88059,5.553956 1.83465,11.185883 2.86199,16.898545 1.90793,11.901356 4.10908,24.041926 6.60409,36.419366 2.49497,12.21875 4.99144,24.11867 7.48638,35.70266 1.76118,8.41031 3.66931,16.97972 5.72401,25.70739 2.20145,8.56899 4.25499,16.66191 6.16291,24.27879 1.90793,7.61689 3.59572,13.96349 5.06333,19.0414 l 20.25342,73.55065 h 57.23762 V 13.0217 h -51.73308 v 72.122024 c 0,5.23663 0.0728,10.711314 0.21937,16.423956 0.29351,5.55398 0.66151,11.2669 1.10177,17.13826 0.29356,6.66476 0.87964,14.35982 1.76023,23.08747 0.88055,8.56899 1.83465,17.29803 2.86197,26.1844 1.02737,8.72768 2.05414,16.58234 3.08144,23.56447 1.17412,9.83847 2.27585,18.32684 3.30317,25.46764 1.02736,7.14084 2.05413,14.12359 3.08146,20.94704 1.02736,6.66476 2.12907,14.20257 3.30319,22.61291 h -4.40273 c -0.73383,-5.23662 -1.46756,-10.63269 -2.20138,-16.18668 -0.7338,-5.39529 -1.54246,-10.94858 -2.42307,-16.66125 -2.05468,-11.90136 -4.10821,-23.48685 -6.16289,-34.7535 -2.05468,-11.26661 -4.40351,-23.48339 -7.04526,-36.65425 -1.17411,-6.1887 -2.64157,-13.25005 -4.40271,-21.18429 -1.76117,-8.09294 -3.59659,-16.10726 -5.50451,-24.04151 -1.90793,-8.09293 -3.74116,-15.39252 -5.50232,-21.898589 L 628.08336,13.0217 Z m 177.21734,0 V 296.27252 H 854.83249 V 243.9062 h -58.33941 v -72.12204 h 52.83486 V 119.41781 H 796.49308 V 65.38559 h 57.23758 V 13.021712 Z m 187.12229,0 v 283.25082 h 51.73531 v -33.56219 c 0,-13.17088 -0.29525,-26.8171 -0.88232,-40.94005 -0.44024,-11.42532 -0.95365,-21.65995 -1.54075,-30.70502 -0.58706,-9.04505 -1.24582,-18.0909 -1.97962,-27.13594 -0.58705,-9.04505 -1.32301,-19.27973 -2.20359,-30.70503 -1.32087,-15.8685 -2.64068,-30.86313 -3.96154,-44.986076 -1.32087,-14.12298 -2.568,-27.295123 -3.74213,-39.513854 h 4.40275 c 0.58705,6.3474 1.24806,12.932265 1.98187,19.755721 0.73381,6.823443 1.54027,13.727571 2.42083,20.70972 1.17413,11.425329 2.78925,24.676069 4.84393,39.751119 2.05468,14.91641 4.40123,30.9426 7.04295,48.08058 1.61444,11.26664 3.1568,21.42269 4.62445,30.46772 1.46763,8.88638 2.93508,17.53437 4.40272,25.94468 1.61434,8.4103 3.30214,17.37515 5.06334,26.89624 l 7.0453,35.94238 h 39.6244 l 7.0453,-35.94238 c 1.1741,-6.34739 2.4212,-12.85122 3.7421,-19.51602 1.1741,-6.66476 2.3485,-13.49028 3.5226,-20.47239 1.4676,-8.56903 3.0078,-17.92932 4.6222,-28.08516 1.6144,-10.15585 3.1568,-20.39292 4.6244,-30.70742 1.6144,-10.31453 3.0092,-19.99413 4.1833,-29.03915 1.3209,-10.79061 2.4953,-20.62737 3.5226,-29.51371 1.1741,-8.886383 2.2736,-17.694023 3.3009,-26.421703 1.0274,-8.727644 1.9814,-18.011753 2.862,-27.850227 h 4.4027 c -0.587,6.3474 -1.1731,12.932265 -1.7602,19.755721 -0.7338,6.823443 -1.3948,13.80618 -1.9818,20.946986 -1.4677,14.440343 -2.7897,29.039503 -3.9639,43.797223 -1.174,14.7577 -2.2735,29.67373 -3.3009,44.7488 -1.0273,14.12296 -1.8337,28.72211 -2.4208,43.79719 -0.5871,14.9164 -0.8824,28.56261 -0.8824,40.94005 v 33.56219 h 51.7354 V 13.0217 h -72.8688 l -16.5114,113.29934 c -0.587,3.80845 -1.1004,7.77751 -1.5407,11.90331 -0.4403,3.96715 -0.8809,8.09099 -1.3212,12.37548 -0.8806,8.72767 -1.6144,17.6139 -2.2015,26.65896 -0.587,8.88636 -1.0254,18.33013 -1.3189,28.32726 -0.2936,9.52108 -0.5888,18.8814 -0.8824,28.08513 -0.1466,9.20373 -0.2194,18.17099 -0.2194,26.89869 h -4.4026 v -13.09219 c 0,-4.4432 -0.073,-9.04595 -0.2194,-13.8065 -0.2936,-7.93424 -0.5139,-14.5977 -0.6607,-19.99301 -0.1466,-5.55397 -0.367,-11.02867 -0.6606,-16.42396 -0.1466,-5.55395 -0.4398,-12.13883 -0.8801,-19.7557 -0.5871,-9.99716 -1.3208,-19.20267 -2.2014,-27.61299 -0.7338,-8.56898 -1.6151,-16.42365 -2.6425,-23.56448 L 1004.7513,13.0217 Z m 254.4889,0 -40.948,283.25082 h 51.7353 l 7.7037,-64.9815 h 36.9842 l 7.7058,64.9815 h 51.7331 L 1260.3396,13.0217 Z m 383.7108,0 v 283.25082 h 51.7353 v -131.6289 h 38.5249 v 131.6289 h 51.7352 V 13.0217 h -51.7352 v 99.25557 h -38.5249 V 13.0217 Z m 168.4117,0 v 283.25082 h 51.7333 V 13.0217 Z m 78.1517,0 v 283.25082 h 51.7333 v -69.26486 c 0,-5.39531 -0.1445,-10.9486 -0.4389,-16.66125 -0.1461,-5.87134 -0.3672,-11.82252 -0.6609,-17.85253 -0.8804,-12.06007 -2.055,-24.35787 -3.5225,-36.89397 -1.4677,-12.69482 -2.9352,-25.23082 -4.403,-37.60828 -1.7611,-12.85348 -3.5213,-24.994066 -5.2823,-36.419366 -1.7614,-11.583993 -3.3764,-22.533398 -4.844,-32.847891 h 4.4027 c 0.7335,5.077924 1.5401,10.395352 2.4207,15.949346 0.8807,5.553956 1.8347,11.185883 2.862,16.898545 1.908,11.901356 4.1093,24.041926 6.6041,36.419366 2.4948,12.21875 4.9914,24.11867 7.4864,35.70266 1.7612,8.41031 3.6693,16.97972 5.7241,25.70739 2.2013,8.56899 4.255,16.66191 6.1625,24.27879 1.9084,7.61689 3.596,13.96349 5.0636,19.0414 l 20.2534,73.55065 h 57.2374 V 13.0217 h -51.7326 v 72.122024 c 0,5.23663 0.073,10.711314 0.2195,16.423956 0.2933,5.55398 0.659,11.2669 1.0994,17.13826 0.2935,6.66476 0.8816,14.35982 1.7621,23.08747 0.8807,8.56899 1.8349,17.29803 2.8621,26.1844 1.0275,8.72768 2.054,16.58234 3.0816,23.56447 1.1742,9.83847 2.2759,18.32684 3.3031,25.46764 1.0275,7.14084 2.0542,14.12361 3.0815,20.94704 1.0275,6.66476 2.1269,14.20257 3.3011,22.61291 h -4.4027 c -0.734,-5.23662 -1.4676,-10.63269 -2.2018,-16.18668 -0.7335,-5.39529 -1.54,-10.94858 -2.4207,-16.66125 -2.0545,-11.90136 -4.108,-23.48685 -6.1629,-34.7535 -2.0545,-11.2666 -4.4034,-23.48338 -7.0452,-36.65422 -1.1742,-6.18871 -2.6417,-13.25008 -4.4028,-21.18431 -1.761,-8.09294 -3.5964,-16.10726 -5.5044,-24.04151 -1.9079,-8.09293 -3.741,-15.392518 -5.5023,-21.898586 l -19.5953,-76.168102 z m 177.2173,0 v 283.25082 h 110.0726 V 243.9062 h -58.3395 v -72.12204 h 52.8348 v -52.36635 h -52.8348 V 65.38559 h 57.2379 V 13.021712 Z M 1221.154,58.245059 h 4.4027 c 0,4.919231 0.073,9.124115 0.2194,12.61519 0.1466,3.332381 0.2944,6.508131 0.4412,9.523112 0.1466,2.85635 0.3671,6.108272 0.6606,9.758028 l 8.8054,88.783261 h -24.6561 l 8.8054,-88.783261 c 0.4403,-2.380294 0.6607,-5.158134 0.6607,-8.331847 0,-1.58685 0.073,-3.173512 0.2193,-4.760349 0.1467,-1.745544 0.2194,-3.410791 0.2194,-4.997678 0,-1.110769 0.075,-2.301972 0.2217,-3.571434 V 65.1483 Z" />
  </g>
</svg>
